<svg id="Layer_1" data-name="Layer 1" xmlns="http://www.w3.org/2000/svg" viewBox="0 0 270 371"><defs><style>.cls-1,.cls-2{fill:#fff;}.cls-1{stroke:#000;stroke-miterlimit:10;stroke-width:2px;}</style></defs><rect class="cls-1" x="46.5" y="155.68" width="48.41" height="176.17"/><rect class="cls-1" x="94.51" y="155.68" width="48.41" height="176.17"/><rect class="cls-1" x="142.66" y="155.68" width="48.41" height="176.17"/><rect class="cls-1" x="190.66" y="155.68" width="48.41" height="176.17"/><rect x="173.59" y="152.68" width="32.28" height="90.1"/><rect x="125.64" y="152.68" width="32.28" height="90.1"/><rect x="77.9" y="152.68" width="32.28" height="90.1"/><path class="cls-2" d="M59.84,74.05h5.25a9.48,9.48,0,0,1,4.65,1.08A10.1,10.1,0,0,1,73,78a12.45,12.45,0,0,1,2,4.06,18.34,18.34,0,0,1-.15,10.13,9.42,9.42,0,0,1-6.31,6.31,17.33,17.33,0,0,1-5.52.79v19.63H59.84ZM63,87.77v9.06a12.28,12.28,0,0,0,4.35-.67,7.15,7.15,0,0,0,2.9-1.93,7.84,7.84,0,0,0,1.63-3.16,16.29,16.29,0,0,0,.53-4.35A15.63,15.63,0,0,0,72,83.25,11.58,11.58,0,0,0,70.7,80a7.6,7.6,0,0,0-2.25-2.49,5.69,5.69,0,0,0-3.36-1H63Z"/><path class="cls-2" d="M95.71,81.58v2.16H92.49V82.63a13.08,13.08,0,0,0-.17-1.95,7.42,7.42,0,0,0-.62-2,4.55,4.55,0,0,0-1.16-1.55,2.85,2.85,0,0,0-1.9-.61A2.91,2.91,0,0,0,87,77a5,5,0,0,0-1.25,1.22,5.09,5.09,0,0,0-.79,1.64,6,6,0,0,0-.27,1.72v33.47H81.51V81.58a9.46,9.46,0,0,1,.32-2.16A7.49,7.49,0,0,1,83,76.94a7.32,7.32,0,0,1,2.19-2,6.57,6.57,0,0,1,3.48-.84,6.25,6.25,0,0,1,3.38.84,7.36,7.36,0,0,1,2.17,2,8.49,8.49,0,0,1,1.17,2.48A8.69,8.69,0,0,1,95.71,81.58Z"/><path class="cls-2" d="M102.66,77.41a7,7,0,0,1,2.63-2.52,6.9,6.9,0,0,1,3.41-.81,7.42,7.42,0,0,1,3.42.87,7.08,7.08,0,0,1,2.63,2.51,7.6,7.6,0,0,1,1,4.12L115.74,92h-11v15.48a5.4,5.4,0,0,0,.91,3.18,4.43,4.43,0,0,0,2.13,1.76,3,3,0,0,0,2.48-.24,4.54,4.54,0,0,0,2-2.71.74.74,0,0,1,.06-.27c0-.09.07-.21.11-.35s.08-.25.12-.35l.12-.26,3,1a.46.46,0,0,1-.06.18,1,1,0,0,0-.09.26.88.88,0,0,1-.09.26.46.46,0,0,0-.06.18,6.66,6.66,0,0,1-3.27,4.12,7.14,7.14,0,0,1-4.61.7,7.23,7.23,0,0,1-5.84-7.45V81.58A7.66,7.66,0,0,1,102.66,77.41Zm9.93,12.12v-8a5.63,5.63,0,0,0-.59-2.71,4.52,4.52,0,0,0-1.46-1.67,3.47,3.47,0,0,0-1.87-.61,3.39,3.39,0,0,0-1.87.49,4,4,0,0,0-1.46,1.67,6.15,6.15,0,0,0-.58,2.83v8Z"/><path class="cls-2" d="M136.6,111.61a8.28,8.28,0,0,1-3.07,2.6,9.55,9.55,0,0,1-4,1,7.48,7.48,0,0,1-3.92-.93,7.69,7.69,0,0,1-3-3.16,10.92,10.92,0,0,1-1-5.61h3.27v1.06q0,3.15,1.52,4.58a4.61,4.61,0,0,0,3.33,1.4,5.15,5.15,0,0,0,3.33-1.31,4.43,4.43,0,0,0,1.52-3.56v-6.43a10.9,10.9,0,0,0-.18-2.16,3.33,3.33,0,0,0-.7-1.52,5.77,5.77,0,0,0-1.46-1.23A23,23,0,0,0,129.82,95c-.27-.16-.54-.29-.79-.41l-.73-.35c-.23-.12-.47-.24-.7-.38L127,93.5a13.77,13.77,0,0,1-1.87-1.23,7,7,0,0,1-1.4-1.43,5.49,5.49,0,0,1-.88-1.78,7.89,7.89,0,0,1-.29-2.28v-6a6.2,6.2,0,0,1,1.08-3.68,7.4,7.4,0,0,1,2.63-2.33,7.08,7.08,0,0,1,3.39-.82,6.6,6.6,0,0,1,3.38.9,7,7,0,0,1,2.57,2.81,9.67,9.67,0,0,1,1,4.82v1.11h-3.22l.06-1.4a6.48,6.48,0,0,0-1.19-4.33,3.63,3.63,0,0,0-2.63-1.37,3.58,3.58,0,0,0-2.63,1.14,4.28,4.28,0,0,0-1.2,3.21c0,1-.06,2-.06,2.92v2.86a6.3,6.3,0,0,0,.21,1.73,3.89,3.89,0,0,0,.61,1.28,4.93,4.93,0,0,0,1,1,13.43,13.43,0,0,0,1.41.9c.19.08.39.18.61.29l.64.35c.21.12.44.24.67.35s.49.24.76.35c1.09.55,2,1.07,2.81,1.55a8.24,8.24,0,0,1,1.92,1.64,6,6,0,0,1,1.14,2,8.69,8.69,0,0,1,.38,2.78v6.77A6.57,6.57,0,0,1,136.6,111.61Z"/><path class="cls-2" d="M158.68,111.61a8.28,8.28,0,0,1-3.07,2.6,9.55,9.55,0,0,1-4,1,7.51,7.51,0,0,1-3.92-.93,7.75,7.75,0,0,1-2.95-3.16,10.92,10.92,0,0,1-1.05-5.61H147v1.06q0,3.15,1.52,4.58a4.61,4.61,0,0,0,3.33,1.4,5.15,5.15,0,0,0,3.33-1.31,4.43,4.43,0,0,0,1.52-3.56v-6.43a11.81,11.81,0,0,0-.17-2.16,3.34,3.34,0,0,0-.71-1.52,5.77,5.77,0,0,0-1.46-1.23A23,23,0,0,0,151.9,95c-.27-.16-.54-.29-.79-.41l-.73-.35c-.23-.12-.47-.24-.7-.38L149,93.5a13.77,13.77,0,0,1-1.87-1.23,7.28,7.28,0,0,1-1.4-1.43,5.49,5.49,0,0,1-.88-1.78,8.25,8.25,0,0,1-.29-2.28v-6a6.2,6.2,0,0,1,1.08-3.68,7.4,7.4,0,0,1,2.63-2.33A7.08,7.08,0,0,1,151.7,74a6.6,6.6,0,0,1,3.38.9,6.92,6.92,0,0,1,2.57,2.81,9.56,9.56,0,0,1,1,4.82v1.11h-3.21l.05-1.4a6.48,6.48,0,0,0-1.19-4.33,3.63,3.63,0,0,0-2.63-1.37A3.58,3.58,0,0,0,149,77.67a4.28,4.28,0,0,0-1.2,3.21c0,1-.06,2-.06,2.92v2.86a6.3,6.3,0,0,0,.21,1.73,3.89,3.89,0,0,0,.61,1.28,4.93,4.93,0,0,0,1,1,13.43,13.43,0,0,0,1.41.9c.19.08.39.18.61.29l.64.35c.22.12.44.24.67.35s.49.24.76.35c1.09.55,2,1.07,2.81,1.55a8,8,0,0,1,1.92,1.64,6,6,0,0,1,1.14,2,8.69,8.69,0,0,1,.38,2.78v6.77A6.57,6.57,0,0,1,158.68,111.61Z"/><path class="cls-2" d="M198.57,74.05a6.42,6.42,0,0,1,3.42.84,7.33,7.33,0,0,1,3.33,4.47,8.93,8.93,0,0,1,.32,2.16v33.53h-3.21V81.52a4.29,4.29,0,0,0,0-.49c0-.18-.05-.36-.09-.56s-.08-.4-.14-.61a6.45,6.45,0,0,0-.21-.62c-.08-.19-.16-.38-.26-.58a3.27,3.27,0,0,0-.32-.52,5.06,5.06,0,0,0-.62-.73,3,3,0,0,0-.67-.53,2.42,2.42,0,0,0-.73-.29,3.35,3.35,0,0,0-.79-.09A2.91,2.91,0,0,0,197,77a4.23,4.23,0,0,0-1.23,1.19A6.73,6.73,0,0,0,195,79.8a5.91,5.91,0,0,0-.29,1.78v33.47h-3.21V81.58a6,6,0,0,0-.06-.79,4.59,4.59,0,0,0-.21-.87,7.36,7.36,0,0,0-.35-.91,4.64,4.64,0,0,0-.49-.87,3.33,3.33,0,0,0-2.11-1.61,3.08,3.08,0,0,0-2.19.41,4.9,4.9,0,0,0-1.72,1.87,5.45,5.45,0,0,0-.7,2.71v33.53h-3.15V81.52a7.24,7.24,0,0,1,1.37-4.47,7.41,7.41,0,0,1,3.36-2.59,7,7,0,0,1,4.15-.27,6.24,6.24,0,0,1,3.67,2.6,8.54,8.54,0,0,1,2.22-1.93A6.37,6.37,0,0,1,198.57,74.05Z"/><path class="cls-2" d="M212.59,77.41a7.11,7.11,0,0,1,2.63-2.52,6.91,6.91,0,0,1,3.42-.81,7.42,7.42,0,0,1,3.42.87,7.08,7.08,0,0,1,2.63,2.51,7.6,7.6,0,0,1,1.05,4.12L225.68,92h-11v15.48a5.46,5.46,0,0,0,.9,3.18,4.52,4.52,0,0,0,2.13,1.76,3,3,0,0,0,2.49-.24,4.53,4.53,0,0,0,1.95-2.71.74.74,0,0,1,.06-.27,2.79,2.79,0,0,0,.12-.35c0-.13.08-.25.12-.35a2,2,0,0,1,.11-.26l3,1a.46.46,0,0,1-.06.18,1.6,1.6,0,0,0-.08.26.88.88,0,0,1-.09.26.46.46,0,0,0-.06.18,6.66,6.66,0,0,1-3.27,4.12,7.16,7.16,0,0,1-4.62.7,7.23,7.23,0,0,1-5.84-7.45V81.58A7.66,7.66,0,0,1,212.59,77.41Zm9.93,12.12v-8a5.64,5.64,0,0,0-.58-2.71,4.61,4.61,0,0,0-1.46-1.67,3.49,3.49,0,0,0-1.87-.61,3.39,3.39,0,0,0-1.87.49,4,4,0,0,0-1.46,1.67,6.15,6.15,0,0,0-.58,2.83v8Z"/></svg>